<?xml version="1.0" encoding="utf-8"?>
<!-- Svg Vector Icons : http://www.onlinewebfonts.com/icon -->
<!DOCTYPE svg PUBLIC "-//W3C//DTD SVG 1.1//EN" "http://www.w3.org/Graphics/SVG/1.1/DTD/svg11.dtd">
<svg version="1.1" xmlns="http://www.w3.org/2000/svg" xmlns:xlink="http://www.w3.org/1999/xlink" x="0px" y="0px" viewBox="0 0 256 256" enable-background="new 0 0 256 256" xml:space="preserve">
<metadata> Svg Vector Icons : http://www.onlinewebfonts.com/icon </metadata>
<g><g><path fill="#000000" d="M79.5,30.9h41.7v13.9H79.5V30.9z"/><path fill="#000000" d="M58.6,58.6h6.9c3.8,0,7-3.1,7-7V23.9c0-3.8-3.1-7-7-7h-6.9c-3.8,0-7,3.1-7,7v27.8C51.7,55.5,54.8,58.6,58.6,58.6z"/><path fill="#000000" d="M176.7,45.7L176.7,45.7V114l13.9,0V35.8c0-2.7-3.1-5-6.9-5h-27.8v9.9h13.9C173.6,40.8,176.7,43,176.7,45.7z"/><path fill="#000000" d="M135,58.6h6.9c3.8,0,6.9-3.1,6.9-7V23.9c0-3.8-3.1-7-6.9-7h-7c-3.8,0-6.9,3.1-6.9,7v27.8C128.1,55.5,131.2,58.6,135,58.6z"/><path fill="#000000" d="M23.9,204.5V51.7c0-3.8,3.1-7,7-7h13.9V30.9H16.9c-3.8,0-6.9,3.1-6.9,7v180.6c0,3.8,3.1,6.9,6.9,6.9h83.4v-13.9H30.8C27,211.5,23.9,208.4,23.9,204.5z"/><path fill="#000000" d="M48.2,114.2h104.2c1.9,0,3.5-1.6,3.5-3.5v-7c0-1.9-1.6-3.5-3.5-3.5H48.2c-1.9,0-3.5,1.5-3.5,3.5v7C44.7,112.7,46.3,114.2,48.2,114.2z"/><path fill="#000000" d="M46.2,155.9c-0.8,0-1.5,1.5-1.5,3.5v6.9c0,1.9,0.7,3.5,1.5,3.5H90c0.8,0,1.5-1.6,1.5-3.5v-6.9c0-1.9-0.7-3.5-1.5-3.5H46.2z"/><path fill="#000000" d="M129.7,201.7L129.7,201.7C129.7,201.6,129.7,201.7,129.7,201.7z"/><path fill="#000000" d="M245.7,172.6c-2.1-5.7-5.4-9.6-12.3-8.8c-1,0.1-2.8-2-3.4-3.4c-3.3-8.5-6.4-17.1-9.4-25.8c-1.9-5.5-5.7-9.1-11-10.5c-7.1-2-14.5-3.2-21.7-4.7c-10.6-1.6-20.2-1.6-31.7,0c-4.1,0.6-8.3,1.2-12.4,2c-10.9,2.1-19.4,6.9-22.5,18.7c-1.9,7-4.6,13.8-7.2,20.7c-0.5,1.3-2.2,3.3-3.1,3.2c-7.6-1-10.6,3.7-12.6,9.7c-0.4,1.4-0.2,2.7,0,3.7c2.9,0.8,5.9,1.5,7.9,2.1c-0.1,11-0.3,22-0.4,32.9c0,5.9-0.3,11.8,0.1,17.7c0.2,2.7,1.2,6.9,2.7,8c1.1,1.4,20.6,1.4,24.3,0c1.7-0.7,2.5-9.2,3.9-14.4c23.3,0,47.5,0,71.6,0c1.8,4.8-1.6,10.8,3.9,14.4c1.6,1.1,22.7,1.2,23.7-0.4c1-0.6,2.4-4.5,2.5-7c0.3-13.9,0.2-27.9,0.1-41.8c0-3.1-0.7-6.1-1.1-9.1c2.6-0.7,5.6-1.5,8.5-2.3C246,176.1,246.2,174.4,245.7,172.6z M142.3,197.5c-0.6,1.6-2.9,3-4.7,3.5c-2.5,0.6-5.3,0.7-7.9,0.7c0,0.1,0,0,0,0c-3.9-0.4-7.8-0.5-11.5-1.3c-4.9-1-6.3-4.7-4.8-11.2c1-4.5,4.5-4.7,7.7-3.6c6.3,2.1,12.5,4.6,18.5,7.4C141,193.6,142.7,196.4,142.3,197.5z M123.4,166.1c3.6-10.2,6.7-19.5,10.4-28.7c0.7-1.8,3.4-3.3,5.4-3.8c5-1.2,10.1-2.4,15.1-2.3c15.4,0.1,30.7,0.7,46.1,1.3c6.3,0.3,10.5,3.5,12.3,10c2,7.6,4.8,15.1,7.5,23.5C187.8,173.1,156.3,172.9,123.4,166.1z M226.6,200.2c-4,0.9-8.3,1.1-11.7,1.5c-3.9-0.3-7-0.3-10-0.9c-3.7-0.8-4.9-5.2-1.6-6.8c7.2-3.5,14.7-6.3,22.3-8.6c3-0.9,5.1,1.6,5.2,5C231,194.2,232.2,198.9,226.6,200.2z"/></g></g>
</svg>